<?xml version="1.0" encoding="iso-8859-1"?>
<!-- Generator: Adobe Illustrator 21.0.0, SVG Export Plug-In . SVG Version: 6.00 Build 0)  -->
<svg version="1.1" id="Capa_1" xmlns="http://www.w3.org/2000/svg" xmlns:xlink="http://www.w3.org/1999/xlink" x="0px" y="0px"
	 viewBox="0 0 511.973 511.973" style="enable-background:new 0 0 511.973 511.973;" xml:space="preserve">
<g>
	<g>
		<path style="fill:#00C756;" d="M331.858,447.361c-9.293-4.377-18.594-9.518-27.572-15.555c-1.886-1.268-3.617-2.69-5.178-4.251
			c-11.42-11.42-13.549-29.691-4.194-43.598c10.623-15.809,32.049-20.003,47.857-9.38c17.42,11.714,37.284,18.72,53.891,22.886
			c4.795,1.203,9.84-0.577,12.81-4.529c10.623-14.136,20.653-29.287,29.926-45.241c4.274-7.352,0.029-16.654-8.318-18.279
			c-13.058-2.542-26.819-6.476-40.224-12.448c-3.641-1.626-6.811-3.853-9.469-6.51c-8.99-8.99-12.005-22.929-6.519-35.243
			c7.112-15.939,25.798-23.1,41.753-15.988c16.775,7.49,35.099,10.208,49.56,11.015c5.587,0.312,10.667-3.204,12.357-8.538
			c3.518-11.105,9.584-30.748,13.941-47.507c2.015-7.751-3.818-15.284-11.826-15.341c-8.256-0.059-16.758-0.655-25.326-1.986
			c-6.259-0.975-11.737-3.901-15.898-8.063c-6.259-6.259-9.55-15.321-8.095-24.741c2.438-15.687,17.126-26.424,32.804-23.994
			c9.759,1.51,19.575,1.612,28.792,0.921c6.225-0.467,11.146-5.53,11.348-11.769c1.067-32.845-1.962-65.668-9.897-97.456
			c-1.748-6.982-7.193-12.428-14.175-14.175c-31.789-7.934-64.611-10.964-97.456-9.897c-6.239,0.203-11.303,5.123-11.769,11.348
			c-0.691,9.218-0.589,19.034,0.921,28.792c2.43,15.679-8.307,30.366-23.994,32.804c-9.42,1.455-18.483-1.837-24.741-8.095
			c-4.161-4.162-7.088-9.64-8.063-15.898c-1.346-8.659-1.94-17.25-1.988-25.588c-0.045-7.89-7.389-13.712-15.069-11.903
			c-16.15,3.805-32.086,8.472-47.671,13.9c-5.348,1.862-8.71,7.153-8.167,12.789c1.227,12.733,4.181,35.272,10.537,49.507
			c7.112,15.955-0.049,34.641-15.988,41.753c-12.314,5.486-26.253,2.471-35.243-6.519c-2.658-2.658-4.885-5.828-6.51-9.469
			c-5.973-13.405-9.906-27.166-12.448-40.224c-1.625-8.347-10.927-12.592-18.279-8.318c-15.954,9.273-31.105,19.303-45.241,29.926
			c-3.952,2.97-5.732,8.015-4.529,12.81c4.166,16.607,11.173,36.47,22.886,53.891c10.623,15.809,6.429,37.234-9.38,47.857
			c-13.907,9.355-32.179,7.226-43.598-4.194c-1.561-1.561-2.983-3.292-4.259-5.186c-6.031-8.973-11.171-18.271-15.546-27.563
			c-3.995-8.484-15.655-9.608-21.08-1.96c-56.653,79.877-53.868,170.092,61.653,228.633
			c58.542,115.521,148.757,118.305,228.633,61.653C341.466,463.017,340.342,451.357,331.858,447.361z"/>
		<path style="fill:#00A52C;" d="M494.383,31.765c-1.748-6.982-7.193-12.428-14.175-14.175c-4.488-1.121-8.999-2.132-13.525-3.059
			c3.12,2.772,5.409,6.455,6.46,10.653c8.594,34.432,11.875,69.983,10.719,105.559c-0.144,4.42-2.481,8.285-5.962,10.578
			c5.113,0.169,10.157,0.035,15.032-0.331c6.225-0.466,11.146-5.53,11.348-11.769C505.347,96.377,502.317,63.554,494.383,31.765z"/>
		<path style="fill:#00A52C;" d="M480.654,198.855c-3.378-0.024-6.798-0.144-10.246-0.361c1.249,2.73,1.622,5.903,0.788,9.112
			c-4.874,18.75-11.661,40.726-15.597,53.149c-1.064,3.359-3.329,6.073-6.221,7.742c5.93,0.913,11.618,1.455,16.804,1.745
			c5.587,0.312,10.667-3.204,12.357-8.538c3.518-11.104,9.584-30.749,13.941-47.507
			C494.496,206.445,488.663,198.912,480.654,198.855z"/>
		<path style="fill:#00A52C;" d="M431.081,329.415c-3.581-0.697-7.219-1.511-10.884-2.431c1.321,3.33,1.223,7.234-0.798,10.71
			c-9.273,15.954-26.303,41.105-36.926,55.241c-0.091,0.121-0.19,0.233-0.284,0.351c4.993,1.635,9.862,3.021,14.474,4.178
			c4.795,1.203,9.84-0.577,12.81-4.529c10.623-14.136,20.653-29.287,29.926-45.241C443.673,340.342,439.428,331.04,431.081,329.415z
			"/>
		<path style="fill:#00A52C;" d="M331.858,447.361c-4.379-2.063-8.759-4.302-13.107-6.717c-0.515,2.98-2.129,5.809-4.933,7.797
			c-59.106,41.921-123.868,51.28-177.274,6.518c56.658,66.633,130.568,60.793,197.274,13.482
			C341.466,463.017,340.342,451.356,331.858,447.361z"/>
		<path style="fill:#55D47B;" d="M226.281,387.869l-55.721-12.366l61.202-64.552l79.898,17.732
			c9.296,2.064,18.505-3.8,20.568-13.097c2.063-9.297-3.801-18.506-13.097-20.568l-59.701-13.25l65.926-69.534l60.029,15.287
			c9.228,2.35,18.613-3.226,20.964-12.453c2.349-9.228-3.225-18.615-12.454-20.964l-41.362-10.533l40.839-43.074
			c5.775-6.091,5.647-15.672-0.288-21.607s-15.516-6.062-21.607-0.288l-43.074,40.839l-10.533-41.361
			c-2.35-9.23-11.736-14.804-20.964-12.454c-9.228,2.35-14.804,11.736-12.454,20.964l15.287,60.028l-69.534,65.926l-13.25-59.701
			c-2.063-9.298-11.271-15.161-20.568-13.097c-9.296,2.064-15.16,11.272-13.096,20.568l17.732,79.898l-64.552,61.202l-12.366-55.721
			c-2.062-9.299-11.271-15.161-20.568-13.097c-9.296,2.063-15.16,11.272-13.096,20.568l16.848,75.918l-82.189,77.924
			c-8.132,7.71-8.303,20.608-0.38,28.531l11.718,11.718c7.923,7.923,20.822,7.752,28.531-0.38l77.924-82.189l75.918,16.848
			c9.296,2.064,18.505-3.8,20.568-13.097C241.442,399.14,235.581,389.93,226.281,387.869z"/>
	</g>
	<g>
		<path d="M123.711,210.848c-10.681,7.185-25.025,5.808-34.108-3.275c-8.087-8.087-13.516-20.433-18.323-30.64
			c-6.325-13.43-25.382-15.23-33.983-3.104c-22.802,32.148-35.309,64.244-37.173,95.397c-0.247,4.135,2.904,7.687,7.039,7.935
			c0.153,0.009,0.304,0.014,0.455,0.014c3.937,0,7.241-3.07,7.48-7.053c1.694-28.311,13.28-57.789,34.436-87.617
			c2.114-2.98,6.659-2.401,8.176,0.818c5.644,11.985,11.798,25.366,21.288,34.856c14.143,14.143,36.469,16.293,53.084,5.116
			c19.016-12.792,24.177-39.285,11.421-58.268c-9.429-14.023-16.776-31.361-21.835-51.531c-0.47-1.874,0.221-3.832,1.76-4.989
			c13.911-10.454,28.884-20.358,44.505-29.438c2.865-1.665,6.513,0.011,7.147,3.268c3.39,17.414,8.008,40.553,21.017,53.563
			c11.375,11.375,28.897,14.617,43.603,8.064c19.688-8.785,28.563-31.958,19.78-51.66c-5.962-13.352-8.774-35.284-9.92-47.169
			c-0.213-2.212,1.089-4.263,3.168-4.986c15.48-5.391,31.268-9.994,46.925-13.683c2.977-0.7,5.83,1.603,5.848,4.645
			c0.052,9.185,0.751,18.167,2.077,26.7c3.032,19.511,21.869,33.261,41.367,30.251c19.742-3.069,33.313-21.625,30.253-41.363
			c-1.289-8.33-1.576-17.443-0.853-27.085c0.183-2.438,2.132-4.335,4.534-4.413c33.245-1.081,65.343,2.176,95.392,9.676
			c4.302,1.077,7.644,4.418,8.719,8.716c2.522,10.105,4.598,20.652,6.17,31.346c0.603,4.098,4.409,6.929,8.511,6.33
			c4.098-0.603,6.932-4.413,6.33-8.511c-1.644-11.18-3.816-22.215-6.458-32.802c-2.425-9.685-9.946-17.206-19.634-19.63
			c-31.4-7.838-64.881-11.242-99.517-10.117c-10.078,0.328-18.248,8.188-19.004,18.284c-0.808,10.78-0.476,21.041,0.988,30.501
			c1.794,11.57-6.162,22.446-17.726,24.244c-11.434,1.778-22.472-6.324-24.249-17.733c-1.212-7.8-1.851-16.036-1.899-24.48
			C320.428,18.5,308.389,9,296.21,11.867c-16.159,3.807-32.449,8.557-48.417,14.117c-8.631,3.006-14.045,11.474-13.166,20.592
			c1.507,15.63,4.665,37.313,11.152,51.841c5.415,12.146-0.055,26.435-12.189,31.849c-9.068,4.04-19.873,2.043-26.888-4.971
			c-10.606-10.604-14.153-31.71-16.9-45.822c-2.569-13.198-17.811-20.111-29.41-13.37c-16.128,9.375-31.597,19.608-45.978,30.415
			c-6.375,4.792-9.239,12.89-7.297,20.63c5.482,21.858,13.536,40.783,23.935,56.249
			C139.258,185.599,135.917,202.646,123.711,210.848z"/>
		<path d="M462.874,147.494c9.458,1.463,19.719,1.795,30.499,0.988c10.097-0.756,17.958-8.926,18.285-19.004
			c0.396-12.197,0.223-24.453-0.515-36.429c-0.255-4.135-3.82-7.277-7.947-7.024c-4.134,0.255-7.279,3.813-7.024,7.947
			c0.709,11.508,0.876,23.29,0.495,35.019c-0.078,2.402-1.975,4.351-4.413,4.534c-9.641,0.723-18.754,0.436-27.083-0.853
			c-19.737-3.061-38.296,10.512-41.366,30.26c-3.028,19.478,10.812,38.332,30.254,41.361c8.445,1.312,17.336,2.01,26.429,2.075
			c3.096,0.025,5.396,2.959,4.617,5.955c-4.368,16.802-10.542,36.74-13.833,47.129c-0.657,2.073-2.628,3.43-4.789,3.315
			c-17.708-0.989-33.933-4.577-46.924-10.377c-19.699-8.782-42.87,0.092-51.658,19.785c-8.643,19.369,0.453,43.024,19.787,51.657
			c12.73,5.672,26.807,10.032,41.84,12.958c3.268,0.636,4.93,4.292,3.27,7.149c-9.08,15.62-18.984,30.593-29.438,44.504
			c-1.157,1.54-3.113,2.23-4.99,1.76c-20.17-5.059-37.507-12.405-51.532-21.836c-19.218-12.913-45.356-7.791-58.263,11.418
			c-12.691,18.886-7.446,45.579,11.409,58.26c8.777,5.901,18.386,11.323,28.562,16.116c3.247,1.529,3.771,6.081,0.815,8.177
			c-40.021,28.384-80.116,39.659-115.951,32.603c-32.78-6.454-61.512-27.874-85.468-63.696l17.353-18.303l71.772,15.928
			c0.027,0.006,0.055,0.01,0.083,0.016c13.05,2.796,26.524-5.724,29.432-18.809c2.926-13.167-5.62-26.596-18.793-29.515
			l-42.789-9.497l49.167-51.858c0,0,75.746,16.81,75.752,16.812c12.997,2.884,26.602-5.668,29.516-18.794
			c2.919-13.149-5.642-26.598-18.794-29.514l-46.77-10.38l53.784-56.728l55.763,14.2c0.013,0.004,0.027,0.006,0.041,0.009
			c13.887,3.535,28.401-6.116,30.541-20.355c0.002-0.016,0.004-0.032,0.006-0.048c1.849-12.218-6.428-24.52-18.376-27.559
			l-28.977-7.379c0,0,32.046-33.8,32.046-33.8c8.497-8.962,8.294-23.348-0.427-32.07c-8.602-8.602-23.244-8.8-32.071-0.428
			l-33.8,32.046c0,0-7.376-28.962-7.383-28.987c-3.517-12.672-17.208-21.146-30.08-17.861c-12.91,3.295-21.156,17.185-17.871,30.083
			l14.2,55.763l-56.728,53.784c0,0-10.376-46.751-10.381-46.772c-3.173-14.051-18.249-22.688-31.943-18.123
			c-11.659,3.886-19.036,16.818-16.364,28.846l16.812,75.752l-51.858,49.167l-9.496-42.788
			c-2.885-13.024-16.494-21.685-29.515-18.796C88.763,268.176,80.117,281.804,83,294.8l15.928,71.772l-18.303,17.353
			c-35.951-24.043-57.393-52.899-63.758-85.837c-0.786-4.066-4.714-6.726-8.787-5.94c-4.067,0.786-6.727,4.72-5.94,8.787
			c6.984,36.135,29.626,67.571,67.344,93.554c0,0-49.612,47.037-49.663,47.085c-11.039,10.466-11.278,28.523-0.523,39.277
			c0,0,11.708,11.708,11.718,11.719c10.75,10.75,28.822,10.503,39.277-0.523l47.085-49.663
			c25.884,37.575,57.178,60.193,93.134,67.272c45.419,8.942,90.903-9.11,127.525-35.085c12.152-8.619,10.318-27.664-3.102-33.983
			c-9.49-4.469-18.434-9.514-26.583-14.993c-12.2-8.206-15.536-25.231-7.331-37.442c8.296-12.347,25.096-15.639,37.447-7.339
			c15.468,10.401,34.393,18.454,56.25,23.937c7.743,1.943,15.84-0.922,20.631-7.297c10.807-14.381,21.04-29.849,30.415-45.977
			c6.748-11.608-0.18-26.843-13.369-29.411c-13.921-2.71-26.909-6.727-38.6-11.935c-11.976-5.336-17.53-19.876-12.196-31.849
			c5.416-12.138,19.703-17.608,31.847-12.195c14.846,6.628,32.409,10.55,52.199,11.655c8.997,0.503,17.198-5.156,19.925-13.761
			c3.335-10.529,9.596-30.751,14.05-47.885c3.193-12.281-6.379-24.638-19.032-24.728c-8.355-0.06-16.507-0.698-24.224-1.897
			c-11.433-1.776-19.504-12.812-17.738-24.241C440.426,153.656,451.305,145.699,462.874,147.494z M59.407,481.727
			c-4.749,5.009-12.908,5.113-17.785,0.237c0,0-11.704-11.704-11.718-11.718c-4.882-4.882-4.769-13.038,0.237-17.785
			c0,0,82.183-77.919,82.189-77.924c1.893-1.795,2.725-4.525,2.162-7.068c0,0-16.829-75.833-16.848-75.918
			c-1.148-5.174,2.23-10.474,7.399-11.621c5.066-1.124,10.498,2.342,11.622,7.4c0,0,12.351,55.651,12.366,55.721
			c1.234,5.562,8.352,7.733,12.482,3.817c0,0,64.496-61.149,64.552-61.202c1.892-1.794,2.726-4.525,2.162-7.067l-17.732-79.899
			c-1.22-5.499,2.809-11.136,8.408-11.788c4.781-0.557,9.569,2.859,10.613,7.568c0,0,13.235,59.631,13.25,59.701
			c1.24,5.586,8.35,7.736,12.482,3.817c0,0,69.481-65.875,69.534-65.926c1.949-1.848,2.77-4.693,2.108-7.293
			c0,0-15.282-60.01-15.287-60.029c-1.277-5.015,1.945-10.549,7.036-11.844c5.057-1.287,10.548,2.004,11.845,7.037
			c0,0,10.524,41.325,10.533,41.361c1.391,5.46,8.353,7.457,12.428,3.592c0,0,43.066-40.831,43.074-40.839
			c3.097-2.936,8.132-2.863,11.144,0.148c3.034,3.034,3.093,8.038,0.148,11.144c0,0-40.777,43.009-40.839,43.074
			c-3.85,4.061-1.854,11.042,3.592,12.428l41.363,10.534c4.423,1.12,7.534,5.346,7.328,9.896
			c-0.273,6.001-6.342,10.428-12.136,8.985c0,0-60.005-15.28-60.029-15.287c-2.531-0.645-5.432,0.144-7.294,2.108
			c0,0-65.836,69.44-65.926,69.534c-3.934,4.15-1.775,11.241,3.818,12.482c0,0,59.623,13.233,59.703,13.25
			c5.137,1.14,8.535,6.498,7.399,11.621c-1.112,5.013-6.507,8.533-11.621,7.399l-79.898-17.732c-2.573-0.571-5.255,0.25-7.068,2.162
			c0,0-61.177,64.525-61.202,64.552c-3.93,4.145-1.762,11.244,3.818,12.482c0,0,55.688,12.359,55.723,12.367
			c5.196,1.153,8.548,6.437,7.397,11.621c-1.112,5.01-6.45,8.525-11.576,7.406c-0.014-0.003-0.029-0.004-0.044-0.007l-75.918-16.848
			c-2.573-0.571-5.255,0.25-7.068,2.161C137.331,399.537,59.523,481.604,59.407,481.727z"/>
	</g>
</g>
<g>
</g>
<g>
</g>
<g>
</g>
<g>
</g>
<g>
</g>
<g>
</g>
<g>
</g>
<g>
</g>
<g>
</g>
<g>
</g>
<g>
</g>
<g>
</g>
<g>
</g>
<g>
</g>
<g>
</g>
</svg>
