<?xml version="1.0" encoding="iso-8859-1"?>
<!-- Generator: Adobe Illustrator 21.0.0, SVG Export Plug-In . SVG Version: 6.00 Build 0)  -->
<svg version="1.1" id="Capa_1" xmlns="http://www.w3.org/2000/svg" xmlns:xlink="http://www.w3.org/1999/xlink" x="0px" y="0px"
	 viewBox="0 0 512 512" style="enable-background:new 0 0 512 512;" xml:space="preserve">
<g>
	<g>
		<path style="fill:#00A52C;" d="M396.82,407.312c29.75-18.249,45.714-50.309,44.509-82.439c-0.158-4.201-2.482-7.99-6.156-10.035
			c-28.094-15.636-63.908-15.935-93.658,2.314c-31.79,19.5-47.838,54.77-44.018,89.043
			C326.317,425.133,365.03,426.812,396.82,407.312z"/>
		<path style="fill:#00A52C;" d="M170.539,99.708c-29.66-18.396-65.474-18.274-93.645-2.778c-3.684,2.026-6.027,5.804-6.205,10.004
			c-1.364,32.123,14.441,64.262,44.1,82.658c31.693,19.657,70.414,18.17,99.327-0.625
			C218.106,154.714,202.232,119.365,170.539,99.708z"/>
		<g>
			<g>
				<path style="fill:#55D47B;" d="M188.129,48.056c6.91,24.36,10.925,62.644,10.925,93.833s-4.015,69.473-10.925,93.833
					L255.806,256l67.677-20.278c-6.91-24.36-10.925-62.644-10.925-93.833s4.015-69.473,10.925-93.833l-67.677-20.278L188.129,48.056
					z"/>
			</g>
		</g>
		<path style="fill:#00C756;" d="M218.129,235.723c6.91-24.36,10.925-62.645,10.925-93.833s-4.015-69.473-10.925-93.834
			l52.677-15.783l-15-4.495l-67.677,20.278c6.91,24.36,10.925,62.645,10.925,93.834s-4.015,69.473-10.925,93.833L255.806,256
			l15-4.494L218.129,235.723z"/>
		<g>
			<g>
				<path style="fill:#55D47B;" d="M188.129,463.945c6.91-24.36,10.925-62.644,10.925-93.833s-4.015-69.473-10.925-93.833
					L255.806,256l67.677,20.278c-6.91,24.36-10.925,62.644-10.925,93.833s4.015,69.473,10.925,93.833l-67.677,20.278
					L188.129,463.945z"/>
			</g>
		</g>
		<path style="fill:#00C756;" d="M218.129,463.945c6.91-24.36,10.925-62.645,10.925-93.833s-4.015-69.473-10.925-93.833
			l52.677-15.783l-15-4.494l-67.677,20.277c6.91,24.36,10.925,62.645,10.925,93.833s-4.015,69.473-10.925,93.833l67.677,20.278
			l15-4.495L218.129,463.945z"/>
		<path style="fill:#00C756;" d="M323.483,7.5H188.129c-11.199,0-20.278,9.079-20.278,20.278v0c0,11.199,9.079,20.278,20.278,20.278
			h135.354c11.199,0,20.278-9.079,20.278-20.278v0C343.761,16.579,334.682,7.5,323.483,7.5z"/>
		<path style="fill:#00A52C;" d="M197.852,27.778L197.852,27.778c0-11.199,9.079-20.278,20.278-20.278h-30
			c-11.199,0-20.278,9.079-20.278,20.278l0,0c0,11.199,9.079,20.278,20.278,20.278h30C206.93,48.056,197.852,38.977,197.852,27.778z
			"/>
		<path style="fill:#00C756;" d="M323.483,504.5H188.129c-11.199,0-20.278-9.079-20.278-20.278v0
			c0-11.199,9.079-20.278,20.278-20.278h135.354c11.199,0,20.278,9.079,20.278,20.278v0
			C343.761,495.422,334.682,504.5,323.483,504.5z"/>
		<path style="fill:#00A52C;" d="M197.852,484.223L197.852,484.223c0-11.199,9.079-20.278,20.278-20.278h-30
			c-11.199,0-20.278,9.079-20.278,20.278l0,0c0,11.199,9.079,20.278,20.278,20.278h30C206.93,504.5,197.852,495.422,197.852,484.223
			z"/>
		<path style="fill:#00C756;" d="M323.483,235.722H188.129c-11.199,0-20.278,9.079-20.278,20.278v0
			c0,11.199,9.079,20.278,20.278,20.278h135.354c11.199,0,20.278-9.079,20.278-20.278v0
			C343.761,244.801,334.682,235.722,323.483,235.722z"/>
		<path style="fill:#00A52C;" d="M197.852,256L197.852,256c0-11.199,9.079-20.277,20.278-20.277h-30
			c-11.199,0-20.278,9.079-20.278,20.277l0,0c0,11.199,9.079,20.278,20.278,20.278h30C206.93,276.278,197.852,267.199,197.852,256z"
			/>
	</g>
	<g>
		<path d="M174.493,93.334c-16.08-9.973-34.489-15.245-53.239-15.245c-16.794,0-33.383,4.243-47.975,12.269
			c-6.022,3.313-9.791,9.39-10.083,16.257c-1.526,35.94,16.728,70.177,47.64,89.35c16.069,9.966,34.47,15.235,53.217,15.236
			c7.513,0,14.938-0.847,22.194-2.497c-1.193,7.336-2.557,14.15-4.058,20.164c-12.471,2.729-21.837,13.854-21.837,27.131
			c0,13.278,9.366,24.403,21.837,27.132c5.654,22.661,9.366,56.736,9.366,86.979c0,7.146-0.217,14.725-0.645,22.526
			c-0.227,4.136,2.942,7.672,7.078,7.899c4.14,0.228,7.673-2.942,7.899-7.078c0.443-8.073,0.667-15.928,0.667-23.347
			c0-29.487-3.447-62.664-8.798-86.333h116.1c-3.76,16.634-6.574,37.963-7.918,59.408c-0.001,0.015-0.005,0.029-0.006,0.044
			c-1.61,24.154-1.053,48.586,1.557,72.65c0.004,0.041,0.016,0.079,0.021,0.119c1.528,14.74,3.704,28.754,6.347,40.445H197.763
			c2.178-9.594,4.059-20.817,5.525-33.028c0.493-4.113-2.44-7.847-6.553-8.34c-4.108-0.492-7.847,2.439-8.341,6.552
			c-1.619,13.485-3.746,25.615-6.205,35.462c-12.471,2.729-21.837,13.854-21.837,27.132c0,15.316,12.461,27.778,27.777,27.778
			h135.354c15.316,0,27.777-12.461,27.777-27.778c0-13.278-9.366-24.403-21.837-27.132c-2.242-8.987-4.18-19.765-5.701-31.393
			c7.887,1.968,15.987,2.985,24.213,2.986c18.57,0,36.83-5.18,52.805-14.979c31.007-19.02,49.431-53.166,48.082-89.113
			c-0.258-6.869-3.997-12.965-10.003-16.308c-14.702-8.183-31.442-12.507-48.41-12.507c-18.575,0-36.838,5.181-52.816,14.982
			c-5.296,3.249-10.205,6.946-14.75,11.021c1.622-14.381,3.878-27.818,6.581-38.648c12.471-2.729,21.837-13.854,21.837-27.132
			c0-13.277-9.366-24.403-21.837-27.131c-5.654-22.661-9.366-56.736-9.366-86.979c0-7.658,0.246-15.763,0.731-24.093
			c0.241-4.135-2.916-7.683-7.051-7.923c-4.136-0.243-7.682,2.916-7.923,7.051c-0.502,8.619-0.756,17.018-0.756,24.965
			c0,29.487,3.447,62.664,8.798,86.333h-116.1c1.931-8.543,3.609-18.335,4.972-28.735c0.015-0.088,0.041-0.172,0.053-0.261
			c3.172-24.056,4.577-48.484,3.475-72.741c-0.001-0.021-0.006-0.042-0.007-0.063c-0.943-25.147-4.062-51.265-8.494-70.867h116.096
			c-2.06,9.084-3.86,19.649-5.289,31.109c-0.513,4.11,2.404,7.858,6.515,8.371c4.112,0.513,7.858-2.404,8.37-6.514
			c1.588-12.741,3.637-24.232,5.977-33.612c12.471-2.729,21.836-13.854,21.836-27.131C351.262,12.461,338.801,0,323.484,0H188.13
			c-15.316,0-27.777,12.461-27.777,27.778c0,13.277,9.366,24.402,21.837,27.131c3.414,13.684,6.119,31.527,7.727,50.18
			C185.193,100.729,180.058,96.786,174.493,93.334z M164.05,196.202c-15.948-0.001-31.615-4.49-45.308-12.983
			c-26.315-16.322-41.857-45.43-40.561-75.966c0.067-1.585,0.937-2.988,2.327-3.751c12.383-6.812,26.472-10.412,40.745-10.412
			c15.954,0,31.629,4.493,45.332,12.992c9.811,6.085,18.131,13.868,24.758,23.153c0.392,12.16,0.191,24.323-0.509,36.468
			l-55.004-34.116c-3.52-2.184-8.144-1.1-10.327,2.42c-2.183,3.52-1.1,8.144,2.42,10.327l61.622,38.221
			c-0.321,3.382-0.668,6.751-1.061,10.072C180.574,195.001,172.377,196.202,164.05,196.202z M336.262,484.223
			c0,7.046-5.732,12.777-12.777,12.777H188.13c-7.045,0-12.777-5.732-12.777-12.777c0-7.046,5.732-12.778,12.777-12.778h135.354
			C330.53,471.445,336.262,477.177,336.262,484.223z M320.776,346.287c6.642-9.128,14.93-16.773,24.661-22.742
			c13.617-8.353,29.169-12.768,44.974-12.768c14.421,0,28.639,3.67,41.116,10.615c1.386,0.771,2.249,2.178,2.308,3.763
			c1.146,30.542-14.54,59.572-40.937,75.764c-13.614,8.351-29.163,12.765-44.964,12.765c-8.884,0-17.604-1.363-25.984-4.056
			c-0.282-3.057-0.529-6.119-0.75-9.174l62.708-38.466c3.531-2.166,4.637-6.784,2.471-10.315s-6.784-4.637-10.314-2.471
			l-55.771,34.21C319.877,371.034,320.062,358.651,320.776,346.287z M336.262,256c0,7.045-5.73,12.776-12.775,12.778
			c0,0-0.001,0-0.002,0H188.13c-0.001,0-0.001,0-0.001,0c-7.045-0.001-12.776-5.733-12.776-12.778
			c0-7.044,5.73-12.776,12.775-12.777c0,0,0.001,0,0.002,0h135.354c0.001,0,0.001,0,0.001,0
			C330.531,243.224,336.262,248.956,336.262,256z M175.352,27.778c0-7.046,5.732-12.778,12.777-12.778h135.354
			c7.045,0,12.777,5.732,12.777,12.778c0,7.045-5.732,12.777-12.777,12.777H188.13C181.084,40.556,175.352,34.824,175.352,27.778z"
			/>
	</g>
</g>
<g>
</g>
<g>
</g>
<g>
</g>
<g>
</g>
<g>
</g>
<g>
</g>
<g>
</g>
<g>
</g>
<g>
</g>
<g>
</g>
<g>
</g>
<g>
</g>
<g>
</g>
<g>
</g>
<g>
</g>
</svg>
